<svg width="114" height="39" viewBox="0 0 114 39" fill="none" xmlns="http://www.w3.org/2000/svg">
<path d="M106.796 10.206C106.796 11.41 106.39 12.404 105.578 13.188C104.794 13.972 103.8 14.364 102.596 14.364C101.392 14.364 100.384 13.972 99.5719 13.188C98.7879 12.404 98.3959 11.41 98.3959 10.206C98.3959 9.00205 98.7879 7.99404 99.5719 7.18204C100.384 6.39804 101.392 6.00604 102.596 6.00604C103.8 6.00604 104.794 6.39804 105.578 7.18204C106.39 7.99405 106.796 9.00205 106.796 10.206ZM90.1219 10.206C90.1219 11.41 89.7159 12.404 88.9039 13.188C88.1199 13.972 87.1259 14.364 85.9219 14.364C84.7179 14.364 83.7099 13.972 82.8979 13.188C82.1139 12.404 81.7219 11.41 81.7219 10.206C81.7219 9.00205 82.1139 7.99404 82.8979 7.18204C83.7099 6.39804 84.7179 6.00604 85.9219 6.00604C87.1259 6.00604 88.1199 6.39804 88.9039 7.18204C89.7159 7.99404 90.1219 9.00205 90.1219 10.206Z" fill="#29B66A"/>
<path d="M75.2327 23.7013C75.2327 21.3188 78.1971 19.9958 80.2141 21.2641C81.4306 22.0291 82.6961 22.703 84.0107 23.286C87.2307 24.742 90.6467 25.47 94.2587 25.47C97.8707 25.47 101.287 24.742 104.507 23.286C105.821 22.703 107.087 22.0291 108.303 21.2641C110.32 19.9958 113.285 21.3188 113.285 23.7013C113.285 24.4542 112.975 25.1773 112.406 25.6709C109.94 27.8117 107.307 29.4947 104.507 30.72C101.399 32.092 97.9827 32.778 94.2587 32.778C90.5347 32.778 87.1047 32.092 83.9687 30.72C81.1932 29.4948 78.574 27.8118 76.1111 25.6711C75.5429 25.1772 75.2327 24.4542 75.2327 23.7013Z" fill="#29B66A"/>
<path d="M60.2745 2.55005C62.3853 2.55005 64.0965 4.26122 64.0965 6.37205V32.958C64.0965 35.0689 62.3853 36.78 60.2745 36.78C58.1636 36.78 56.4525 35.0689 56.4525 32.958V27.878C56.4525 25.1166 54.2139 22.878 51.4525 22.878H46.3325C43.5711 22.878 41.3325 25.1166 41.3325 27.878V32.9581C41.3325 35.0689 39.6213 36.78 37.5105 36.78C35.3996 36.78 33.6885 35.0689 33.6885 32.958V6.37205C33.6885 4.26122 35.3996 2.55005 37.5105 2.55005C39.6213 2.55005 41.3325 4.26122 41.3325 6.37205V11.1161C41.3325 13.8775 43.5711 16.116 46.3325 16.116H51.4525C54.2139 16.116 56.4525 13.8775 56.4525 11.116V6.37204C56.4525 4.26121 58.1636 2.55005 60.2745 2.55005Z" fill="#29B66A"/>
<path d="M11.0263 9.48334L11.0264 9.48343L11.0348 9.47788C11.9029 8.90743 13.1517 8.59402 14.8342 8.59402C16.5793 8.59402 17.9172 8.99635 18.8974 9.75034C19.0415 9.86122 19.1768 9.97813 19.3033 10.101C19.416 10.2105 19.5306 10.323 19.6472 10.4375C20.2705 11.0495 20.949 11.7158 21.6803 12.2497C22.5566 12.8894 23.563 13.382 24.7316 13.382C26.0513 13.382 27.2751 12.8075 28.0307 11.9087C28.7984 10.9955 29.0804 9.7403 28.4622 8.48292C28.1808 7.91074 27.8473 7.36177 27.4622 6.83612C26.2042 5.053 24.5105 3.66993 22.3953 2.68477C20.2778 1.69853 17.9225 1.21002 15.3382 1.21002C12.6832 1.21002 10.2697 1.62389 8.10462 2.46062C5.93753 3.27011 4.19519 4.44995 2.89952 6.01064L2.89949 6.01062L2.89594 6.015C1.6155 7.59323 0.978223 9.45611 0.978223 11.58C0.978223 14.7969 1.96823 17.3533 4.00035 19.1762C5.99897 20.9691 8.96896 22.2125 12.851 22.9493L12.8536 22.9498C14.9714 23.3399 16.5931 23.7401 17.7321 24.1469L17.7355 24.1481C18.9036 24.5556 19.6819 25.0243 20.1335 25.5235L20.1333 25.5236L20.1422 25.5329C20.6041 26.0179 20.8442 26.6319 20.8442 27.414C20.8442 28.3465 20.4274 29.11 19.5103 29.7297L19.5103 29.7297L19.505 29.7333C18.6013 30.3609 17.4206 30.694 15.9262 30.694C13.8479 30.694 12.1952 30.2228 10.9296 29.3206C10.6262 29.0926 10.3559 28.8487 10.1177 28.5894C9.4289 27.8395 8.65007 27.0058 7.77429 26.3628C6.89417 25.7167 5.87808 25.234 4.71097 25.234C3.40571 25.234 2.19463 25.7959 1.42938 26.6828C0.654155 27.5813 0.336998 28.821 0.87036 30.0914C1.202 30.8813 1.61945 31.6263 2.12222 32.3258L2.12219 32.3259L2.12522 32.33C3.49791 34.1992 5.33489 35.6244 7.62083 36.6085C9.9323 37.6196 12.5216 38.12 15.3802 38.12C18.012 38.12 20.4151 37.6766 22.5825 36.7812C24.7536 35.9123 26.4824 34.6437 27.7477 32.9674C29.05 31.2793 29.6982 29.3091 29.6982 27.078C29.6982 24.2534 28.8358 21.8748 27.0906 19.9801C25.3642 18.0472 22.5419 16.714 18.7158 15.9204L18.7155 15.9204C16.2882 15.4182 14.4459 14.9745 13.1801 14.5896C11.9511 14.1794 11.0852 13.7296 10.541 13.2596C10.039 12.826 9.79022 12.28 9.79022 11.58C9.79022 10.7053 10.1766 10.0175 11.0263 9.48334Z" fill="white" stroke="#29B66A"/>
</svg>
