<svg width="1920" height="231" viewBox="0 0 1920 231" fill="none" xmlns="http://www.w3.org/2000/svg">
<path d="M1700.34 173.867L1700.34 173.865C1690.17 156.379 1685.09 136.757 1685.09 115.01C1685.09 93.2637 1690.17 73.7298 1700.34 56.4211C1710.51 38.9392 1724.51 25.29 1742.35 15.4795C1760.37 5.49049 1780.52 0.5 1802.79 0.5C1825.07 0.5 1845.13 5.4902 1862.97 15.4797C1880.98 25.2898 1895.08 38.9388 1905.25 56.4213C1905.25 56.4214 1905.25 56.4216 1905.25 56.4217L1904.82 56.6731C1914.94 73.8989 1920 93.3445 1920 115.01C1920 136.675 1914.94 156.21 1904.82 173.613L1700.34 173.867ZM1700.34 173.867C1710.51 191.171 1724.51 204.73 1742.35 214.54C1760.37 224.529 1780.52 229.52 1802.79 229.52C1825.07 229.52 1845.13 224.53 1862.97 214.541L1700.34 173.867ZM1862.03 150.994L1862.02 150.996C1856.21 161.572 1848.1 169.852 1837.71 175.844C1827.31 181.835 1815.68 184.834 1802.79 184.834C1789.91 184.834 1778.28 181.835 1767.88 175.844C1757.48 169.852 1749.29 161.572 1743.3 150.995C1737.48 140.243 1734.57 128.251 1734.57 115.01C1734.57 101.59 1737.48 89.5991 1743.29 79.0264C1749.29 68.4492 1757.48 60.1684 1767.88 54.1761C1778.28 48.1851 1789.91 45.1861 1802.79 45.1861C1815.68 45.1861 1827.31 48.1851 1837.71 54.1761C1848.1 60.1681 1856.21 68.448 1862.02 79.0235L1862.03 79.029C1868.02 89.6015 1871.02 101.591 1871.02 115.01C1871.02 128.25 1868.02 140.241 1862.03 150.994Z" stroke="#808080"/>
<path d="M1641.29 6.59399V6.09399H1640.79H1592.31H1591.81V6.59399V223.692V224.192H1592.31H1640.79H1641.29V223.692V6.59399Z" stroke="#808080"/>
<path d="M1443.99 6.59399V6.09399H1443.49H1395.01H1394.51V6.59399V223.692V224.192H1395.01H1551.91H1552.41V223.692V180.806V180.306H1551.91H1443.99V6.59399Z" stroke="#808080"/>
<path d="M1130.56 173.867L1130.56 173.865C1120.39 156.379 1115.31 136.757 1115.31 115.01C1115.31 93.2637 1120.39 73.7298 1130.56 56.4211C1140.73 38.9392 1154.73 25.29 1172.57 15.4795C1190.59 5.49049 1210.74 0.5 1233.01 0.5C1255.29 0.5 1275.35 5.4902 1293.19 15.4797C1311.2 25.2898 1325.3 38.9388 1335.47 56.4213C1335.47 56.4214 1335.47 56.4216 1335.47 56.4217L1335.04 56.6731C1345.16 73.8989 1350.22 93.3445 1350.22 115.01C1350.22 136.675 1345.16 156.21 1335.04 173.613L1130.56 173.867ZM1130.56 173.867C1140.73 191.171 1154.73 204.73 1172.57 214.54C1190.59 224.529 1210.74 229.52 1233.01 229.52C1255.29 229.52 1275.35 224.53 1293.19 214.541L1130.56 173.867ZM1292.24 150.994L1292.24 150.996C1286.43 161.572 1278.32 169.852 1267.92 175.844C1257.53 181.835 1245.9 184.834 1233.01 184.834C1220.13 184.834 1208.5 181.835 1198.1 175.844C1187.7 169.852 1179.51 161.572 1173.51 150.995C1167.7 140.243 1164.79 128.251 1164.79 115.01C1164.79 101.59 1167.7 89.5991 1173.51 79.0264C1179.51 68.4492 1187.7 60.1684 1198.1 54.1761C1208.5 48.1851 1220.13 45.1861 1233.01 45.1861C1245.9 45.1861 1257.53 48.1851 1267.92 54.1761C1278.32 60.1681 1286.43 68.448 1292.24 79.0235L1292.25 79.029C1298.24 89.6015 1301.24 101.591 1301.24 115.01C1301.24 128.25 1298.24 140.241 1292.24 150.994Z" stroke="#808080"/>
<path d="M923.417 6.09399H922.917V6.59399V223.692V224.192H923.417H971.898H972.398V223.692V141.082H1070.46H1070.96V140.582V98.4946V97.9946H1070.46H972.398V49.7146H1082.71H1083.21V49.2146V6.59399V6.09399H1082.71H923.417Z" stroke="#808080"/>
<path d="M881.417 49.9809H881.917V49.4809V6.59399V6.09399H881.417H691.756H691.256V6.59399V49.4809V49.9809H691.756H761.846V223.692V224.192H762.346H810.827H811.327V223.692V49.9809H881.417Z" stroke="#808080"/>
<path d="M613.369 223.954L613.516 224.192H613.795H670.001H670.918L670.421 223.421L620.384 145.85C632.997 139.79 642.67 131.285 649.383 120.332C656.364 109.056 659.846 95.9102 659.846 80.9136C659.846 65.9161 656.363 52.7699 649.382 41.4928C642.4 30.2136 632.288 21.5386 619.067 15.4639C605.845 9.2109 590.142 6.09399 571.974 6.09399H484.602H484.102V6.59399V223.692V224.192H484.602H533.082H533.582V223.692V155.733H571.428L613.369 223.954ZM599.637 58.1339L599.637 58.134L599.648 58.1422C606.783 63.3631 610.365 70.9282 610.365 80.9136C610.365 90.8982 606.784 98.5555 599.643 103.955C592.658 109.194 582.746 111.846 569.843 111.846H533.582V49.9809H569.843C582.743 49.9809 592.653 52.7209 599.637 58.1339Z" stroke="#808080"/>
<path d="M220.149 173.867L220.148 173.865C209.977 156.379 204.896 136.757 204.896 115.01C204.896 93.2636 209.977 73.7295 220.148 56.4207C230.316 38.9391 244.323 25.2899 262.16 15.4795C280.176 5.49049 300.327 0.5 322.603 0.5C344.878 0.5 364.941 5.49019 382.78 15.4797C400.794 25.2897 414.889 38.9388 425.058 56.4213C425.058 56.4214 425.058 56.4216 425.058 56.4217L424.626 56.6731C434.748 73.8989 439.809 93.3445 439.809 115.01C439.809 136.675 434.748 156.21 424.626 173.613L220.149 173.867ZM220.149 173.867C230.317 191.171 244.323 204.73 262.159 214.54C280.175 224.529 300.327 229.52 322.603 229.52C344.877 229.52 364.94 224.53 382.779 214.541L220.149 173.867ZM381.835 150.994L381.833 150.996C376.017 161.572 367.913 169.852 357.515 175.844C347.119 181.835 335.485 184.834 322.603 184.834C309.72 184.834 298.087 181.835 287.69 175.844C277.293 169.852 269.099 161.572 263.105 150.995C257.289 140.243 254.377 128.251 254.377 115.01C254.377 101.59 257.29 89.5991 263.104 79.0264C269.098 68.4492 277.292 60.1684 287.69 54.1761C298.087 48.1851 309.72 45.1861 322.603 45.1861C335.485 45.1861 347.119 48.1851 357.515 54.1761C367.913 60.1681 376.017 68.448 381.833 79.0235L381.837 79.029C387.828 89.6015 390.828 101.591 390.828 115.01C390.828 128.25 387.828 140.241 381.835 150.994Z" stroke="#808080"/>
<path d="M0 6.09399H-0.5V6.59399V223.692V224.192H0H48.4809H48.9809V223.692V166.388H83.3764C102.081 166.388 118.143 163.093 131.546 156.481C145.121 149.871 155.497 140.573 162.654 128.585L162.655 128.582C169.811 116.419 173.38 102.21 173.38 85.9748C173.38 69.9159 169.81 55.884 162.654 43.897C155.497 31.9086 145.12 22.6105 131.545 16.001C118.142 9.38924 102.08 6.09399 83.3764 6.09399H0ZM112.623 113.028L112.619 113.032C105.281 119.322 94.8467 122.501 81.2454 122.501H48.9809V49.9809H81.2454C94.8497 49.9809 105.286 53.0731 112.624 59.1883L112.629 59.1919C120.124 65.2926 123.899 74.1923 123.899 85.9748C123.899 97.7568 120.124 106.749 112.623 113.028Z" stroke="#808080"/>
</svg>
